<?xml version="1.0" encoding="UTF-8"?>
<svg width="255px" height="37px" viewBox="0 0 255 37" version="1.1" xmlns="http://www.w3.org/2000/svg" xmlns:xlink="http://www.w3.org/1999/xlink">
    <!-- Generator: Sketch 64 (93537) - https://sketch.com -->
    <title>Logo</title>
    <desc>Created with Sketch.</desc>
    <g id="Page-1" stroke="none" stroke-width="1" fill="none" fill-rule="evenodd">
        <g id="Webovio" transform="translate(-166.000000, -23.000000)">
            <g id="01-Navigation-bar" transform="translate(164.000000, 23.000000)">
                <g id="Logo">
                    <g id="webovio." transform="translate(66.203389, 0.000000)" fill="#FFFFFF" fill-rule="nonzero">
                        <path d="M0,9.83308919 L8.55369097,32.2773894 L14.4389228,32.2773894 L18.4598886,20.2144919 L22.6270714,32.2773894 L28.5123032,32.2773894 L36.9563315,9.83308919 L29.9013641,9.83308919 L25.4783017,22.3346375 L21.164902,9.83308919 L15.718321,9.83308919 L11.6242467,22.2615291 L7.16463004,9.83308919 L0,9.83308919 Z M38.4916094,21.0917935 C38.4916094,28.6219659 43.2436599,32.8257029 50.1524103,32.8257029 C54.8679066,32.8257029 58.669547,30.4862319 60.6434757,26.9770254 L60.2130026,26.7154708 C58.6578534,25.7811179 55.3431116,23.8699154 55.3431116,23.8699154 L55.1396322,24.1331639 C54.0037645,25.5796987 52.5837891,26.9770254 50.4813984,26.9770254 C47.922602,26.9770254 45.8024563,25.6976271 45.2175886,23.029168 L61.009018,23.029168 C61.041003,22.5813786 61.0170143,22.3015102 61.0105173,21.8712126 L61.009018,21.6766613 C61.009018,13.6712839 56.4397387,9.39443837 49.9696391,9.39443837 C43.3533226,9.39443837 38.4916094,14.2927058 38.4916094,21.0917935 Z M49.8965306,15.096899 C52.0166763,15.096899 53.1864118,16.1204176 53.9906049,18.2771175 L45.4734682,18.2771175 C46.3142156,16.1935261 47.5936138,15.096899 49.8965306,15.096899 Z M64.6644415,4.27684548 L64.6644415,32.2773894 L71.3173123,32.2773894 L71.3173123,29.9379184 C73.4009037,31.9849555 75.5941578,32.8257029 78.5550508,32.8257029 C84.8789334,32.8257029 88.863345,27.3425677 88.863345,21.0917935 C88.863345,14.9872363 84.9520419,9.39443837 78.3357254,9.39443837 C74.4244223,9.39443837 71.426975,11.9532348 71.426975,11.9532348 L71.426975,4.27684548 L64.6644415,4.27684548 Z M76.8004475,15.6817668 C79.8710033,15.6817668 82.1008116,18.0943463 82.1008116,20.9455766 C82.1008116,24.125795 80.4193168,26.7942542 77.0928814,26.7942542 C73.5471206,26.7942542 71.2442038,24.5644459 71.2442038,21.0917935 C71.2442038,17.8384666 73.6202291,15.6817668 76.8004475,15.6817668 Z M91.4221415,21.164902 C91.4221415,27.4156762 96.6859513,33.0450284 103.558147,33.0450284 C110.868994,33.0450284 115.803816,27.8908812 115.803816,21.0552393 C115.803816,14.2927058 110.503452,9.39443837 103.704364,9.39443837 C96.795614,9.39443837 91.4221415,14.4389228 91.4221415,21.164902 Z M103.66781,15.7914295 C106.848029,15.7914295 109.041283,18.057792 109.041283,20.9455766 C109.041283,24.4547831 106.994246,26.611483 103.631256,26.611483 C100.524146,26.611483 98.2212292,24.272012 98.2212292,21.2745647 C98.2212292,18.204009 100.377929,15.7914295 103.66781,15.7914295 Z M117.412203,9.83308919 L126.806641,32.2773894 L132.874644,32.2773894 L141.684214,9.83308919 L134.519584,9.83308919 L129.913751,22.9560595 L125.015483,9.83308919 L117.412203,9.83308919 Z M151.188316,32.2773894 L151.188316,9.83308919 L144.389228,9.83308919 L144.389228,32.2773894 L151.188316,32.2773894 Z M143.731252,4.13062854 C143.731252,6.43354534 145.522409,8.22470285 147.752217,8.22470285 C150.091689,8.22470285 151.955954,6.36043687 151.955954,4.05752007 C151.955954,1.79115751 150.091689,0 147.825326,0 C145.558963,0 143.731252,1.86426598 143.731252,4.13062854 Z M154.843739,21.164902 C154.843739,27.4156762 160.107549,33.0450284 166.979745,33.0450284 C174.290592,33.0450284 179.225414,27.8908812 179.225414,21.0552393 C179.225414,14.2927058 173.92505,9.39443837 167.125962,9.39443837 C160.217212,9.39443837 154.843739,14.4389228 154.843739,21.164902 Z M167.089408,15.7914295 C170.269626,15.7914295 172.46288,18.057792 172.46288,20.9455766 C172.46288,24.4547831 170.415843,26.611483 167.052853,26.611483 C163.945744,26.611483 161.642827,24.272012 161.642827,21.2745647 C161.642827,18.204009 163.799527,15.7914295 167.089408,15.7914295 Z" id="webovio"></path>
                        <path d="M185.878284,24.1815696 C188.181201,24.1815696 190.082021,26.0823898 190.082021,28.3853066 C190.082021,30.6882234 188.181201,32.5890436 185.878284,32.5890436 C183.575368,32.5890436 181.674547,30.6882234 181.674547,28.3853066 C181.674547,26.0823898 183.575368,24.1815696 185.878284,24.1815696 Z" id="."></path>
                    </g>
                    <g id="Group-3" transform="translate(0.000000, 4.271186)">
                        <path d="M36.65024,4.78415655 L54.7779667,34.9970343 L54.7779667,34.9970343 L18.6939227,34.9970343 C16.8451261,34.9970343 15.3463803,33.4982885 15.3463803,31.6494918 C15.3463803,31.0427701 15.511273,30.4474551 15.8234288,29.9271955 L30.9092522,4.78415655 C31.8604502,3.19882653 33.9167124,2.68476097 35.5020425,3.63595898 C35.9732077,3.91865814 36.3675409,4.31299129 36.65024,4.78415655 Z" id="Triangle" fill="#FFD723" transform="translate(33.779746, 17.498517) rotate(180.000000) translate(-33.779746, -17.498517) "></path>
                        <path d="M23.8687145,4.78415655 L41.9964411,34.9970343 L41.9964411,34.9970343 L5.91239719,34.9970343 C4.06360057,34.9970343 2.56485479,33.4982885 2.56485479,31.6494918 C2.56485479,31.0427701 2.72974747,30.4474551 3.04190326,29.9271955 L18.1277266,4.78415655 C19.0789246,3.19882653 21.1351869,2.68476097 22.7205169,3.63595898 C23.1916822,3.91865814 23.5860153,4.31299129 23.8687145,4.78415655 Z" id="Triangle-Copy" fill="#FFFFFF" transform="translate(20.998221, 17.498517) scale(-1, 1) rotate(-180.000000) translate(-20.998221, -17.498517) "></path>
                        <polygon id="Rectangle" fill="#F6F6F6" points="12.7815256 0 41.9964411 0 27.3900186 24.345763"></polygon>
                    </g>
                </g>
            </g>
        </g>
    </g>
</svg>