<?xml version="1.0" encoding="utf-8"?>
<!-- Generator: Adobe Illustrator 24.0.3, SVG Export Plug-In . SVG Version: 6.00 Build 0)  -->
<svg version="1.1" xmlns="http://www.w3.org/2000/svg" xmlns:xlink="http://www.w3.org/1999/xlink" x="0px" y="0px"
	 viewBox="0 0 33 33" style="enable-background:new 0 0 33 33;" xml:space="preserve">
<style type="text/css">
	.st0{fill:#444A34;}
	.st1{display:none;}
	.st2{display:inline;}
	.st3{fill:#676D52;}
	.st4{display:inline;fill:#676D52;}
</style>
<g id="Layer_1">
	<circle class="st0" cx="16.5" cy="16.5" r="16.5"/>
</g>
<g id="Linkedin" class="st1">
	<g class="st2">
		<path class="st3" d="M24.5,24.5L24.5,24.5L24.5,24.5l0-5.87c0-2.87-0.62-5.08-3.97-5.08c-1.61,0-2.7,0.89-3.14,1.72h-0.05v-1.46
			h-3.18V24.5h3.31v-5.29c0-1.39,0.26-2.74,1.99-2.74c1.7,0,1.72,1.59,1.72,2.83v5.2H24.5z"/>
		<path class="st3" d="M8.76,13.82h3.32V24.5H8.76V13.82z"/>
		<path class="st3" d="M10.42,8.5c-1.06,0-1.92,0.86-1.92,1.92s0.86,1.94,1.92,1.94s1.92-0.88,1.92-1.94
			C12.34,9.36,11.48,8.5,10.42,8.5z"/>
	</g>
</g>
<g id="twitter">
	<g>
		<g>
			<path class="st3" d="M24.5,11.54c-0.59,0.26-1.23,0.43-1.89,0.52c0.68-0.41,1.2-1.04,1.44-1.81c-0.63,0.38-1.33,0.64-2.08,0.79
				c-0.6-0.64-1.46-1.04-2.4-1.04c-1.82,0-3.28,1.47-3.28,3.28c0,0.26,0.02,0.51,0.08,0.75c-2.73-0.13-5.14-1.44-6.76-3.43
				c-0.28,0.49-0.45,1.05-0.45,1.66c0,1.14,0.58,2.14,1.46,2.73c-0.53-0.01-1.04-0.16-1.48-0.4c0,0.01,0,0.02,0,0.04
				c0,1.59,1.14,2.92,2.63,3.22c-0.27,0.07-0.56,0.11-0.86,0.11c-0.21,0-0.42-0.01-0.62-0.06c0.43,1.3,1.63,2.25,3.06,2.28
				c-1.12,0.87-2.53,1.4-4.07,1.4c-0.27,0-0.53-0.01-0.78-0.05C9.95,22.47,11.68,23,13.53,23c6.04,0,9.34-5,9.34-9.33
				c0-0.14,0-0.28-0.01-0.42C23.51,12.78,24.05,12.2,24.5,11.54z"/>
		</g>
	</g>
</g>
<g id="facebook" class="st1">
	<path class="st4" d="M19.04,11.16h1.46V8.61c-0.25-0.03-1.12-0.11-2.13-0.11c-2.11,0-3.55,1.32-3.55,3.76v2.24H12.5v2.84h2.32v7.16
		h2.85v-7.16h2.23l0.35-2.84h-2.58v-1.96C17.67,11.72,17.89,11.16,19.04,11.16L19.04,11.16z"/>
</g>
</svg>
